PathFileType	4	(X/Y/Z)	Patient4_TMGait_0pt5_01_right_22.trc.trc
DataRate	CameraRate	NumFrames	NumMarkers	Units	OrigDataRate	OrigDataStartFrame	OrigNumFrames
71.428571428571	71.428571428571	6	33	mm	71.428571428571	106	       141
Frame#	Time	L.ASIS			Sacral			L.Shoulder			Chest			R.Shoulder			Neck			R.ASIS			R.Thigh.Superior			R.Thigh.Lateral			R.Thigh.Inferior			R.Patella			L.Thigh.Superior			L.Thigh.Lateral			L.Thigh.Inferior			L.Patella			L.Shank.Superior			L.Shank.Lateral			L.Shank.Inferior			R.Shank.Superior			R.Shank.Lateral			R.Shank.Inferior			R.Heel			R.Midfoot.Superior			R.Midfoot.Lateral			R.Toe			L.Heel			L.Midfoot.Lateral			L.Midfoot.Superior			L.Toe			L.Elbow			L.Wrist			R.Elbow			R.Wrist			
		X1	Y1	Z1	X2	Y2	Z2	X3	Y3	Z3	X4	Y4	Z4	X5	Y5	Z5	X6	Y6	Z6	X7	Y7	Z7	X8	Y8	Z8	X9	Y9	Z9	X10	Y10	Z10	X11	Y11	Z11	X12	Y12	Z12	X13	Y13	Z13	X14	Y14	Z14	X15	Y15	Z15	X16	Y16	Z16	X17	Y17	Z17	X18	Y18	Z18	X19	Y19	Z19	X20	Y20	Z20	X21	Y21	Z21	X22	Y22	Z22	X23	Y23	Z23	X24	Y24	Z24	X25	Y25	Z25	X26	Y26	Z26	X27	Y27	Z27	X28	Y28	Z28	X29	Y29	Z29	X30	Y30	Z30	X31	Y31	Z31	X32	Y32	Z32	X33	Y33	Z33	

106	30.210000000000	920.512510639790	967.531020718725	276.951907782893	699.088536031337	1008.386036969298	426.564056478180	876.910247183742	1433.809081515064	240.483042738233	969.463890190062	1370.077329001223	410.430041468484	872.997070768491	1448.734280380946	576.326010960032	869.069193816411	1500.878930379030	388.507740126392	921.751569799614	950.230100324331	552.218290184046	1006.278414718802	785.508230184946	530.620339819969	969.908284573546	663.343783023458	605.280909927271	1060.716549045328	625.409577999370	527.966778468274	1089.980295183939	523.836593789222	552.560226893799	948.354711616459	748.636321118923	306.944264079487	847.514201091027	640.378112653266	249.489204354388	923.505046524410	556.668707451309	312.104649822227	916.525660940722	488.814771485620	323.507363746897	891.187980341535	418.752521481014	318.247834707439	799.438419174551	303.171928572111	272.813469752039	853.124867314041	195.249526847126	348.787759917527	1041.313850958888	436.380649696937	559.839007234629	945.286704926581	356.147704329085	622.993942601716	971.272165225180	249.175071072610	573.844197091702	808.471399527651	112.775982067926	549.385802680884	985.655583333373	129.167394478576	586.351600910680	887.637986578006	84.134324352778	623.191420212294	1091.291316451102	54.784247537817	614.882819922295	725.492125759466	38.662893566750	397.382213214302	802.157698133673	34.588131167127	318.418162187769	884.220993925936	96.868937007939	345.637647116097	1013.254933099756	47.130920271614	324.904248750665	922.135791320813	1089.439261896882	106.549775041555	1085.889427916963	884.975017851389	103.261027430084	761.730500458258	1123.373213643277	690.750437037743	780.257668532410	863.339639417973	722.256694127527	
107	30.224000000000	921.049574317068	967.356903252047	276.874760989727	698.351178373833	1008.181879826561	425.750780389165	876.868166571746	1433.132764145849	239.976166337534	968.903776750910	1369.715668022668	410.332958009936	871.913618422950	1448.616099679115	575.801242582251	868.542611626124	1500.441081486469	387.849691961058	920.903909457045	949.901760483078	552.368061314232	1004.261293663955	784.216721912343	530.729821513905	967.253238040197	662.391647910844	605.583847841281	1057.334322869427	624.002263559387	527.783016185364	1087.714269560100	524.998697087588	552.012597760647	946.950074794739	747.747005187176	307.190963494227	844.917762216131	640.202454065336	249.378622355342	919.675790475392	555.916067410993	312.269922010047	912.044232627803	488.171014331237	323.739620350334	886.422591666493	418.245016530513	318.488768893470	794.298523072657	303.130089621184	272.710681978916	847.060826272708	194.957194948580	348.957076775458	1044.004303401035	436.826934487463	560.189046416327	953.940271108404	351.099756920701	624.574015833798	986.403173585735	245.757571903709	575.497426511934	832.563939303761	99.710450405638	552.441339539900	1008.757450245904	126.146229648796	588.277037943146	913.768579842995	75.656861502618	625.770936397574	1118.750923825455	57.823728972332	616.296745840517	718.519212917642	38.717749049116	397.332600207849	795.149322483846	34.629772609958	318.453586305010	877.296124628261	96.779748462926	345.718986499306	1006.283766553758	46.843143697048	324.876676689894	924.085582109903	1089.089037409950	106.167101884559	1092.778416646220	888.553604988798	104.039760653482	757.891433930574	1124.938481379072	691.059804986545	766.417162042388	865.180170008652	726.792271475155	
108	30.238000000000	921.556875280770	967.063807141714	276.935522993080	697.657888201742	1007.937010527239	425.053341161876	876.840929299781	1432.363996766176	239.655348493134	968.432769202892	1369.240189642256	410.368382488367	871.026689402277	1448.421664962903	575.458374358459	868.158720919493	1499.913064613220	387.371025142610	920.072366255815	949.439386061153	552.656195210820	1001.951240059409	782.524737718634	531.058048468842	963.970089517909	661.143108540155	606.099149972687	1053.426306290000	622.173802988092	527.936566889706	1084.745317419475	525.797757905518	551.627671801859	945.579297946961	746.808334316447	307.551453839472	842.387131092339	639.985562933409	249.376947871648	915.838400020128	555.136069497508	312.630176226600	907.564391449068	487.514553786849	324.169398562515	881.665271423091	417.722577410578	318.886602547168	789.240326591426	303.064064587083	272.657610429661	841.021666533086	194.652134279537	349.223249871111	1046.087670089197	437.291130907484	560.635439484805	962.366863969463	346.418054108566	626.208002979079	1001.195832470719	243.139504841750	577.055704344531	856.834657854391	88.194306807486	555.313909296178	1031.602548439754	124.131816421669	589.900637747794	939.840572592065	68.471750645806	627.954696901768	1145.509098478754	61.797031988295	617.102382125284	711.542848953946	38.764092998638	397.290067874377	788.135109068946	34.677587281539	318.497557534031	870.364022578552	96.693587432825	345.827699598338	999.303463632878	46.567678853129	324.849592779260	925.537754299731	1088.506539809812	106.048910251650	1098.993460607474	891.957826489544	105.083989763219	754.432764148309	1126.540561796651	691.903555085174	754.471061746845	867.532559144779	731.148629900536	
109	30.252000000000	922.009428190682	966.649322704530	277.158642032770	697.061389065524	1007.633873321598	424.504093500888	876.860174395929	1431.527957828438	239.524431359633	968.062356337633	1368.666991131420	410.546982148924	870.333429849364	1448.162153177806	575.304174047221	867.922753241706	1499.311943420274	387.082832410388	919.263996454798	948.871095722977	553.090900038089	999.435350119228	780.541418123620	531.622600752605	960.218901566492	659.675933989895	606.826849932074	1049.186866843338	620.052157865753	528.433046712673	1081.260510371025	526.293331326811	551.410734680856	944.193195330160	745.820008991847	308.069086734675	839.896919963029	639.738257940010	249.491953119257	911.962359757442	554.334069133125	313.196312552579	903.051533555529	486.848691468908	324.789987133771	876.881147179816	417.197234283384	319.431346896755	784.221460309220	302.984564956996	272.660776335021	834.984162583303	194.343701130813	349.574812386696	1047.630545425058	437.819778371407	561.159282193989	970.481142040736	342.229982147050	627.841450032022	1015.430784754304	241.384736570636	578.464916264335	880.796548652977	78.442363614630	557.929577241867	1053.817314098196	123.131214829239	591.147184232776	965.386122746104	62.673198003373	629.668252024609	1171.160094255834	66.557739131539	617.214314445798	704.557669848614	38.804482638593	397.257319869563	781.113740650742	34.730593529849	318.548051422670	863.422838665612	96.609416606182	345.959921283813	992.312149862437	46.307918244782	324.824309400524	926.533197257217	1087.710578084111	106.207666496864	1104.514430873292	895.146574660969	106.377226166609	751.281482938621	1128.177344992390	693.212936175451	744.303192839751	870.172646694784	735.374626656881	
110	30.266000000000	922.402707042507	966.121182888428	277.564791504315	696.614394723437	1007.248856359014	424.138033008321	876.956057055739	1430.648884220825	239.587439729649	967.797640758374	1368.012842028379	410.882439601416	869.816260980794	1447.844620624515	575.345486617824	867.830406078398	1498.653333430589	386.997235816465	918.491690087584	948.226266634159	553.683005652607	996.825336697054	778.386046001898	532.428744521778	956.202523696446	658.067486179833	607.749616829675	1044.831900756534	617.766278310336	529.246012791619	1077.473917438007	526.548735597107	551.354160067511	942.752391125689	744.783303458519	308.783307997714	837.429093648296	639.471119484294	249.728512164354	908.032775663745	553.516640415410	313.966778654592	898.485933081656	486.175248361776	325.582855049392	872.048223767044	416.678448626015	320.103767945098	779.202135541801	302.904361259644	272.725869213224	828.927067306344	194.039759952476	349.994609410051	1048.710431463473	438.425535606531	561.735870980256	978.163423730576	338.613588411413	629.412174885106	1028.857133233194	240.470668789499	579.681879411082	903.885797499288	70.537521957489	560.217782218224	1074.970624166735	123.058406402693	591.977498076952	989.862707096001	58.250758440892	630.874443637890	1195.261227412808	71.870853723012	616.629107000652	697.559962708166	38.841967568261	397.236203105806	774.084373190857	34.787082663821	318.602443448208	856.471078367981	96.525949412864	346.110119034167	985.308683950238	46.066747564506	324.802752131018	927.113073484368	1086.727934806179	106.648225979465	1109.326116404787	898.077669193208	107.904706250088	748.375544173265	1129.826490643017	694.900440802725	735.779923815214	872.900392853934	739.512304487156	
111	30.280000000000	922.748503255984	965.493418674333	278.169194990993	696.358456501967	1006.759106321251	423.987197474106	877.152114895672	1429.747726428069	239.848705475542	967.636409226482	1367.294582199982	411.390160909683	869.444510532004	1447.471979749672	575.588891134249	867.867898846610	1497.950110064403	387.126267059669	917.775029691254	947.532227150716	554.444320713652	994.250396811459	776.179018663332	533.467365388275	952.150248656023	656.388350781262	608.831326142812	1040.582803758360	615.437294773209	530.318570044147	1073.612477513992	526.625002735808	551.438807230228	941.232867431719	743.700065555306	309.720809108288	834.973377799395	639.192798340068	250.089037073190	904.053185115943	552.689784649516	314.926082596121	893.866316635587	485.493162796239	326.520117318512	867.161285145130	416.170995479371	320.878135375995	774.149933667300	302.836548758114	272.857895256468	822.833709687076	193.745252994184	350.462440771458	1049.410675109125	439.083087846328	562.335638742521	985.262938182009	335.590528901010	630.852109874265	1041.201664994891	240.287503643562	580.674477154644	925.490624787819	64.429643849378	562.108313003612	1094.588472805300	123.738465336528	592.390312380562	1012.671820781140	55.093901568804	631.572331945805	1217.341469324860	77.424522970363	615.431980824448	690.548211897417	38.878927883478	397.227214602659	767.046811152966	34.844720354399	318.658079055816	849.507755956237	96.441819840449	346.271892951651	978.292713667904	45.846166186992	324.787143577632	927.319891518081	1085.591010944901	107.367274342903	1113.419809557230	900.707214593471	109.652669379082	745.671777864762	1131.445408218558	696.869599854103	728.774413688457	875.542862600639	743.584831270568	
